<svg width="309" height="33" viewBox="0 0 309 33" fill="none" xmlns="http://www.w3.org/2000/svg">
<path d="M6.16625 24.448L4.82225 23.488L8.27825 18.208L3.09425 15.968L3.60625 14.496L8.95025 16.256L9.23825 10.208H10.7743L11.0623 16.256L16.4062 14.496L16.9183 15.968L11.7343 18.208L15.1903 23.488L13.8463 24.448L10.0063 19.36L6.16625 24.448Z" fill="#F7F763"/>
<path d="M21.6275 28L29.0515 6.912H30.5235L37.9475 28H36.3795L32.1875 15.584C31.7608 14.3253 31.3555 13.12 30.9715 11.968C30.5875 10.7947 30.2142 9.568 29.8515 8.288H29.7235C29.3395 9.568 28.9555 10.7947 28.5715 11.968C28.2088 13.12 27.8142 14.3253 27.3875 15.584L23.0995 28H21.6275ZM25.0195 20.768V19.52H34.4595V20.768H25.0195ZM48.303 28.384C46.2977 28.384 44.6657 27.6907 43.407 26.304C42.1483 24.9173 41.519 22.9333 41.519 20.352C41.519 18.688 41.8603 17.2587 42.543 16.064C43.2257 14.848 44.111 13.9093 45.199 13.248C46.3083 12.5867 47.4923 12.256 48.751 12.256C49.7323 12.256 50.6283 12.448 51.439 12.832C52.2497 13.216 53.039 13.7493 53.807 14.432H53.871L53.775 11.328V4.992H55.215V28H53.999L53.839 25.728H53.775C53.1137 26.432 52.303 27.0507 51.343 27.584C50.4043 28.1173 49.391 28.384 48.303 28.384ZM48.495 27.136C49.391 27.136 50.2763 26.8907 51.151 26.4C52.047 25.9093 52.9217 25.216 53.775 24.32V15.776C52.9217 14.944 52.0897 14.3573 51.279 14.016C50.4683 13.6747 49.6577 13.504 48.847 13.504C47.759 13.504 46.7777 13.8027 45.903 14.4C45.0283 14.9973 44.3243 15.8187 43.791 16.864C43.279 17.888 43.023 19.0507 43.023 20.352C43.023 22.3787 43.503 24.0213 44.463 25.28C45.4443 26.5173 46.7883 27.136 48.495 27.136ZM67.4585 28L60.5465 12.64H62.0185L66.2425 22.272C66.6052 23.04 66.9465 23.7973 67.2665 24.544C67.5865 25.2693 67.8852 25.984 68.1625 26.688H68.2905C68.5892 25.984 68.8878 25.2693 69.1865 24.544C69.5065 23.7973 69.8265 23.04 70.1465 22.272L74.4025 12.64H75.7785L68.9625 28H67.4585ZM88.31 28.384C86.838 28.384 85.4833 28.064 84.246 27.424C83.0087 26.784 82.0273 25.8667 81.302 24.672C80.5767 23.456 80.214 22.0053 80.214 20.32C80.214 18.656 80.5767 17.2267 81.302 16.032C82.0273 14.816 82.9767 13.888 84.15 13.248C85.3233 12.5867 86.5713 12.256 87.894 12.256C89.302 12.256 90.518 12.544 91.542 13.12C92.566 13.6747 93.3553 14.4853 93.91 15.552C94.486 16.6187 94.774 17.888 94.774 19.36C94.774 19.552 94.774 19.7547 94.774 19.968C94.774 20.16 94.7527 20.352 94.71 20.544H80.918V19.328H94.07L93.494 19.904C93.494 17.728 92.9713 16.1173 91.926 15.072C90.902 14.0053 89.5687 13.472 87.926 13.472C86.8593 13.472 85.846 13.7387 84.886 14.272C83.9473 14.8053 83.1687 15.584 82.55 16.608C81.9527 17.6107 81.654 18.8373 81.654 20.288C81.654 21.76 81.9633 23.008 82.582 24.032C83.2007 25.056 84.022 25.8347 85.046 26.368C86.07 26.9013 87.19 27.168 88.406 27.168C89.4513 27.168 90.39 27.0187 91.222 26.72C92.054 26.4 92.8327 25.9947 93.558 25.504L94.134 26.56C93.4513 27.0293 92.6407 27.456 91.702 27.84C90.7847 28.2027 89.654 28.384 88.31 28.384ZM100.298 28V12.64H101.514L101.674 15.584H101.802C102.676 14.624 103.594 13.8347 104.554 13.216C105.514 12.576 106.612 12.256 107.85 12.256C109.727 12.256 111.114 12.768 112.01 13.792C112.927 14.816 113.385 16.3627 113.385 18.432V28H111.946V18.624C111.946 16.896 111.604 15.616 110.922 14.784C110.26 13.952 109.162 13.536 107.626 13.536C106.538 13.536 105.556 13.824 104.682 14.4C103.828 14.9547 102.847 15.8187 101.738 16.992V28H100.298ZM128.829 28.384C127.421 28.384 126.312 28.128 125.501 27.616C124.712 27.104 124.146 26.3893 123.805 25.472C123.485 24.5547 123.325 23.4773 123.325 22.24V13.856H118.685V12.768L123.357 12.64L123.549 7.552H124.733V12.64H132.925V13.856H124.733V22.368C124.733 23.3493 124.85 24.2027 125.085 24.928C125.32 25.6533 125.746 26.208 126.365 26.592C126.984 26.9547 127.869 27.136 129.021 27.136C129.832 27.136 130.557 27.072 131.197 26.944C131.858 26.7947 132.498 26.592 133.117 26.336L133.501 27.424C132.797 27.7013 132.072 27.9253 131.325 28.096C130.6 28.288 129.768 28.384 128.829 28.384ZM164.1 28.384C162.756 28.384 161.519 28.0747 160.388 27.456C159.257 26.816 158.351 25.8987 157.668 24.704C156.985 23.488 156.644 22.0373 156.644 20.352C156.644 18.6453 156.985 17.184 157.668 15.968C158.351 14.752 159.257 13.8347 160.388 13.216C161.519 12.576 162.756 12.256 164.1 12.256C165.444 12.256 166.681 12.576 167.812 13.216C168.943 13.8347 169.849 14.752 170.532 15.968C171.215 17.184 171.556 18.6453 171.556 20.352C171.556 22.0373 171.215 23.488 170.532 24.704C169.849 25.8987 168.943 26.816 167.812 27.456C166.681 28.0747 165.444 28.384 164.1 28.384ZM164.1 27.136C165.252 27.136 166.276 26.8587 167.172 26.304C168.089 25.728 168.793 24.928 169.284 23.904C169.796 22.88 170.052 21.696 170.052 20.352C170.052 19.008 169.796 17.824 169.284 16.8C168.793 15.7547 168.089 14.944 167.172 14.368C166.276 13.792 165.252 13.504 164.1 13.504C162.948 13.504 161.924 13.792 161.028 14.368C160.132 14.944 159.428 15.7547 158.916 16.8C158.404 17.824 158.148 19.008 158.148 20.352C158.148 21.696 158.404 22.88 158.916 23.904C159.428 24.928 160.132 25.728 161.028 26.304C161.924 26.8587 162.948 27.136 164.1 27.136ZM182.008 28V10.784C182.008 9.48267 182.221 8.37333 182.648 7.456C183.074 6.53867 183.704 5.83467 184.536 5.344C185.389 4.85333 186.456 4.608 187.736 4.608C188.44 4.608 189.133 4.672 189.816 4.8C190.52 4.928 191.266 5.17333 192.056 5.536L191.608 6.624C190.904 6.28267 190.274 6.06933 189.72 5.984C189.186 5.87733 188.557 5.824 187.832 5.824C186.21 5.824 185.058 6.272 184.376 7.168C183.693 8.04267 183.352 9.20533 183.352 10.656V28H182.008ZM177.368 13.856V12.768L182.008 12.64H190.488V13.856H177.368ZM223.199 28.384C221.897 28.384 220.703 28.128 219.615 27.616C218.548 27.104 217.62 26.368 216.831 25.408C216.041 24.448 215.433 23.296 215.007 21.952C214.58 20.608 214.367 19.0933 214.367 17.408C214.367 15.1893 214.74 13.2693 215.487 11.648C216.255 10.0053 217.311 8.74667 218.655 7.872C220.02 6.976 221.599 6.528 223.391 6.528C224.628 6.528 225.716 6.784 226.655 7.296C227.593 7.808 228.34 8.39467 228.895 9.056L227.999 10.016C227.444 9.35467 226.783 8.832 226.015 8.448C225.247 8.064 224.372 7.872 223.391 7.872C221.855 7.872 220.521 8.26667 219.391 9.056C218.281 9.824 217.417 10.9227 216.799 12.352C216.201 13.76 215.903 15.4453 215.903 17.408C215.903 19.3493 216.201 21.0453 216.799 22.496C217.417 23.9467 218.281 25.0667 219.391 25.856C220.5 26.6453 221.812 27.04 223.327 27.04C224.415 27.04 225.375 26.8267 226.207 26.4C227.06 25.952 227.86 25.3013 228.607 24.448L229.471 25.376C228.681 26.2933 227.785 27.0293 226.783 27.584C225.78 28.1173 224.585 28.384 223.199 28.384ZM240.85 28.384C239.506 28.384 238.269 28.0747 237.138 27.456C236.007 26.816 235.101 25.8987 234.418 24.704C233.735 23.488 233.394 22.0373 233.394 20.352C233.394 18.6453 233.735 17.184 234.418 15.968C235.101 14.752 236.007 13.8347 237.138 13.216C238.269 12.576 239.506 12.256 240.85 12.256C242.194 12.256 243.431 12.576 244.562 13.216C245.693 13.8347 246.599 14.752 247.282 15.968C247.965 17.184 248.306 18.6453 248.306 20.352C248.306 22.0373 247.965 23.488 247.282 24.704C246.599 25.8987 245.693 26.816 244.562 27.456C243.431 28.0747 242.194 28.384 240.85 28.384ZM240.85 27.136C242.002 27.136 243.026 26.8587 243.922 26.304C244.839 25.728 245.543 24.928 246.034 23.904C246.546 22.88 246.802 21.696 246.802 20.352C246.802 19.008 246.546 17.824 246.034 16.8C245.543 15.7547 244.839 14.944 243.922 14.368C243.026 13.792 242.002 13.504 240.85 13.504C239.698 13.504 238.674 13.792 237.778 14.368C236.882 14.944 236.178 15.7547 235.666 16.8C235.154 17.824 234.898 19.008 234.898 20.352C234.898 21.696 235.154 22.88 235.666 23.904C236.178 24.928 236.882 25.728 237.778 26.304C238.674 26.8587 239.698 27.136 240.85 27.136ZM259.366 28.384C257.36 28.384 255.728 27.6907 254.47 26.304C253.211 24.9173 252.582 22.9333 252.582 20.352C252.582 18.688 252.923 17.2587 253.606 16.064C254.288 14.848 255.174 13.9093 256.262 13.248C257.371 12.5867 258.555 12.256 259.814 12.256C260.795 12.256 261.691 12.448 262.502 12.832C263.312 13.216 264.102 13.7493 264.87 14.432H264.934L264.838 11.328V4.992H266.278V28H265.062L264.902 25.728H264.838C264.176 26.432 263.366 27.0507 262.406 27.584C261.467 28.1173 260.454 28.384 259.366 28.384ZM259.558 27.136C260.454 27.136 261.339 26.8907 262.214 26.4C263.11 25.9093 263.984 25.216 264.838 24.32V15.776C263.984 14.944 263.152 14.3573 262.342 14.016C261.531 13.6747 260.72 13.504 259.91 13.504C258.822 13.504 257.84 13.8027 256.966 14.4C256.091 14.9973 255.387 15.8187 254.854 16.864C254.342 17.888 254.086 19.0507 254.086 20.352C254.086 22.3787 254.566 24.0213 255.526 25.28C256.507 26.5173 257.851 27.136 259.558 27.136ZM280.185 28.384C278.713 28.384 277.358 28.064 276.121 27.424C274.884 26.784 273.902 25.8667 273.177 24.672C272.452 23.456 272.089 22.0053 272.089 20.32C272.089 18.656 272.452 17.2267 273.177 16.032C273.902 14.816 274.852 13.888 276.025 13.248C277.198 12.5867 278.446 12.256 279.769 12.256C281.177 12.256 282.393 12.544 283.417 13.12C284.441 13.6747 285.23 14.4853 285.785 15.552C286.361 16.6187 286.649 17.888 286.649 19.36C286.649 19.552 286.649 19.7547 286.649 19.968C286.649 20.16 286.628 20.352 286.585 20.544H272.793V19.328H285.945L285.369 19.904C285.369 17.728 284.846 16.1173 283.801 15.072C282.777 14.0053 281.444 13.472 279.801 13.472C278.734 13.472 277.721 13.7387 276.761 14.272C275.822 14.8053 275.044 15.584 274.425 16.608C273.828 17.6107 273.529 18.8373 273.529 20.288C273.529 21.76 273.838 23.008 274.457 24.032C275.076 25.056 275.897 25.8347 276.921 26.368C277.945 26.9013 279.065 27.168 280.281 27.168C281.326 27.168 282.265 27.0187 283.097 26.72C283.929 26.4 284.708 25.9947 285.433 25.504L286.009 26.56C285.326 27.0293 284.516 27.456 283.577 27.84C282.66 28.2027 281.529 28.384 280.185 28.384Z" fill="#00CC00"/>
<g filter="url(#filter0_f_22_87)">
<path d="M21.6275 28L29.0515 6.912H30.5235L37.9475 28H36.3795L32.1875 15.584C31.7608 14.3253 31.3555 13.12 30.9715 11.968C30.5875 10.7947 30.2142 9.568 29.8515 8.288H29.7235C29.3395 9.568 28.9555 10.7947 28.5715 11.968C28.2088 13.12 27.8142 14.3253 27.3875 15.584L23.0995 28H21.6275ZM25.0195 20.768V19.52H34.4595V20.768H25.0195ZM48.303 28.384C46.2977 28.384 44.6657 27.6907 43.407 26.304C42.1483 24.9173 41.519 22.9333 41.519 20.352C41.519 18.688 41.8603 17.2587 42.543 16.064C43.2257 14.848 44.111 13.9093 45.199 13.248C46.3083 12.5867 47.4923 12.256 48.751 12.256C49.7323 12.256 50.6283 12.448 51.439 12.832C52.2497 13.216 53.039 13.7493 53.807 14.432H53.871L53.775 11.328V4.992H55.215V28H53.999L53.839 25.728H53.775C53.1137 26.432 52.303 27.0507 51.343 27.584C50.4043 28.1173 49.391 28.384 48.303 28.384ZM48.495 27.136C49.391 27.136 50.2763 26.8907 51.151 26.4C52.047 25.9093 52.9217 25.216 53.775 24.32V15.776C52.9217 14.944 52.0897 14.3573 51.279 14.016C50.4683 13.6747 49.6577 13.504 48.847 13.504C47.759 13.504 46.7777 13.8027 45.903 14.4C45.0283 14.9973 44.3243 15.8187 43.791 16.864C43.279 17.888 43.023 19.0507 43.023 20.352C43.023 22.3787 43.503 24.0213 44.463 25.28C45.4443 26.5173 46.7883 27.136 48.495 27.136ZM67.4585 28L60.5465 12.64H62.0185L66.2425 22.272C66.6052 23.04 66.9465 23.7973 67.2665 24.544C67.5865 25.2693 67.8852 25.984 68.1625 26.688H68.2905C68.5892 25.984 68.8878 25.2693 69.1865 24.544C69.5065 23.7973 69.8265 23.04 70.1465 22.272L74.4025 12.64H75.7785L68.9625 28H67.4585ZM88.31 28.384C86.838 28.384 85.4833 28.064 84.246 27.424C83.0087 26.784 82.0273 25.8667 81.302 24.672C80.5767 23.456 80.214 22.0053 80.214 20.32C80.214 18.656 80.5767 17.2267 81.302 16.032C82.0273 14.816 82.9767 13.888 84.15 13.248C85.3233 12.5867 86.5713 12.256 87.894 12.256C89.302 12.256 90.518 12.544 91.542 13.12C92.566 13.6747 93.3553 14.4853 93.91 15.552C94.486 16.6187 94.774 17.888 94.774 19.36C94.774 19.552 94.774 19.7547 94.774 19.968C94.774 20.16 94.7527 20.352 94.71 20.544H80.918V19.328H94.07L93.494 19.904C93.494 17.728 92.9713 16.1173 91.926 15.072C90.902 14.0053 89.5687 13.472 87.926 13.472C86.8593 13.472 85.846 13.7387 84.886 14.272C83.9473 14.8053 83.1687 15.584 82.55 16.608C81.9527 17.6107 81.654 18.8373 81.654 20.288C81.654 21.76 81.9633 23.008 82.582 24.032C83.2007 25.056 84.022 25.8347 85.046 26.368C86.07 26.9013 87.19 27.168 88.406 27.168C89.4513 27.168 90.39 27.0187 91.222 26.72C92.054 26.4 92.8327 25.9947 93.558 25.504L94.134 26.56C93.4513 27.0293 92.6407 27.456 91.702 27.84C90.7847 28.2027 89.654 28.384 88.31 28.384ZM100.298 28V12.64H101.514L101.674 15.584H101.802C102.676 14.624 103.594 13.8347 104.554 13.216C105.514 12.576 106.612 12.256 107.85 12.256C109.727 12.256 111.114 12.768 112.01 13.792C112.927 14.816 113.385 16.3627 113.385 18.432V28H111.946V18.624C111.946 16.896 111.604 15.616 110.922 14.784C110.26 13.952 109.162 13.536 107.626 13.536C106.538 13.536 105.556 13.824 104.682 14.4C103.828 14.9547 102.847 15.8187 101.738 16.992V28H100.298ZM128.829 28.384C127.421 28.384 126.312 28.128 125.501 27.616C124.712 27.104 124.146 26.3893 123.805 25.472C123.485 24.5547 123.325 23.4773 123.325 22.24V13.856H118.685V12.768L123.357 12.64L123.549 7.552H124.733V12.64H132.925V13.856H124.733V22.368C124.733 23.3493 124.85 24.2027 125.085 24.928C125.32 25.6533 125.746 26.208 126.365 26.592C126.984 26.9547 127.869 27.136 129.021 27.136C129.832 27.136 130.557 27.072 131.197 26.944C131.858 26.7947 132.498 26.592 133.117 26.336L133.501 27.424C132.797 27.7013 132.072 27.9253 131.325 28.096C130.6 28.288 129.768 28.384 128.829 28.384ZM164.1 28.384C162.756 28.384 161.519 28.0747 160.388 27.456C159.257 26.816 158.351 25.8987 157.668 24.704C156.985 23.488 156.644 22.0373 156.644 20.352C156.644 18.6453 156.985 17.184 157.668 15.968C158.351 14.752 159.257 13.8347 160.388 13.216C161.519 12.576 162.756 12.256 164.1 12.256C165.444 12.256 166.681 12.576 167.812 13.216C168.943 13.8347 169.849 14.752 170.532 15.968C171.215 17.184 171.556 18.6453 171.556 20.352C171.556 22.0373 171.215 23.488 170.532 24.704C169.849 25.8987 168.943 26.816 167.812 27.456C166.681 28.0747 165.444 28.384 164.1 28.384ZM164.1 27.136C165.252 27.136 166.276 26.8587 167.172 26.304C168.089 25.728 168.793 24.928 169.284 23.904C169.796 22.88 170.052 21.696 170.052 20.352C170.052 19.008 169.796 17.824 169.284 16.8C168.793 15.7547 168.089 14.944 167.172 14.368C166.276 13.792 165.252 13.504 164.1 13.504C162.948 13.504 161.924 13.792 161.028 14.368C160.132 14.944 159.428 15.7547 158.916 16.8C158.404 17.824 158.148 19.008 158.148 20.352C158.148 21.696 158.404 22.88 158.916 23.904C159.428 24.928 160.132 25.728 161.028 26.304C161.924 26.8587 162.948 27.136 164.1 27.136ZM182.008 28V10.784C182.008 9.48267 182.221 8.37333 182.648 7.456C183.074 6.53867 183.704 5.83467 184.536 5.344C185.389 4.85333 186.456 4.608 187.736 4.608C188.44 4.608 189.133 4.672 189.816 4.8C190.52 4.928 191.266 5.17333 192.056 5.536L191.608 6.624C190.904 6.28267 190.274 6.06933 189.72 5.984C189.186 5.87733 188.557 5.824 187.832 5.824C186.21 5.824 185.058 6.272 184.376 7.168C183.693 8.04267 183.352 9.20533 183.352 10.656V28H182.008ZM177.368 13.856V12.768L182.008 12.64H190.488V13.856H177.368ZM223.199 28.384C221.897 28.384 220.703 28.128 219.615 27.616C218.548 27.104 217.62 26.368 216.831 25.408C216.041 24.448 215.433 23.296 215.007 21.952C214.58 20.608 214.367 19.0933 214.367 17.408C214.367 15.1893 214.74 13.2693 215.487 11.648C216.255 10.0053 217.311 8.74667 218.655 7.872C220.02 6.976 221.599 6.528 223.391 6.528C224.628 6.528 225.716 6.784 226.655 7.296C227.593 7.808 228.34 8.39467 228.895 9.056L227.999 10.016C227.444 9.35467 226.783 8.832 226.015 8.448C225.247 8.064 224.372 7.872 223.391 7.872C221.855 7.872 220.521 8.26667 219.391 9.056C218.281 9.824 217.417 10.9227 216.799 12.352C216.201 13.76 215.903 15.4453 215.903 17.408C215.903 19.3493 216.201 21.0453 216.799 22.496C217.417 23.9467 218.281 25.0667 219.391 25.856C220.5 26.6453 221.812 27.04 223.327 27.04C224.415 27.04 225.375 26.8267 226.207 26.4C227.06 25.952 227.86 25.3013 228.607 24.448L229.471 25.376C228.681 26.2933 227.785 27.0293 226.783 27.584C225.78 28.1173 224.585 28.384 223.199 28.384ZM240.85 28.384C239.506 28.384 238.269 28.0747 237.138 27.456C236.007 26.816 235.101 25.8987 234.418 24.704C233.735 23.488 233.394 22.0373 233.394 20.352C233.394 18.6453 233.735 17.184 234.418 15.968C235.101 14.752 236.007 13.8347 237.138 13.216C238.269 12.576 239.506 12.256 240.85 12.256C242.194 12.256 243.431 12.576 244.562 13.216C245.693 13.8347 246.599 14.752 247.282 15.968C247.965 17.184 248.306 18.6453 248.306 20.352C248.306 22.0373 247.965 23.488 247.282 24.704C246.599 25.8987 245.693 26.816 244.562 27.456C243.431 28.0747 242.194 28.384 240.85 28.384ZM240.85 27.136C242.002 27.136 243.026 26.8587 243.922 26.304C244.839 25.728 245.543 24.928 246.034 23.904C246.546 22.88 246.802 21.696 246.802 20.352C246.802 19.008 246.546 17.824 246.034 16.8C245.543 15.7547 244.839 14.944 243.922 14.368C243.026 13.792 242.002 13.504 240.85 13.504C239.698 13.504 238.674 13.792 237.778 14.368C236.882 14.944 236.178 15.7547 235.666 16.8C235.154 17.824 234.898 19.008 234.898 20.352C234.898 21.696 235.154 22.88 235.666 23.904C236.178 24.928 236.882 25.728 237.778 26.304C238.674 26.8587 239.698 27.136 240.85 27.136ZM259.366 28.384C257.36 28.384 255.728 27.6907 254.47 26.304C253.211 24.9173 252.582 22.9333 252.582 20.352C252.582 18.688 252.923 17.2587 253.606 16.064C254.288 14.848 255.174 13.9093 256.262 13.248C257.371 12.5867 258.555 12.256 259.814 12.256C260.795 12.256 261.691 12.448 262.502 12.832C263.312 13.216 264.102 13.7493 264.87 14.432H264.934L264.838 11.328V4.992H266.278V28H265.062L264.902 25.728H264.838C264.176 26.432 263.366 27.0507 262.406 27.584C261.467 28.1173 260.454 28.384 259.366 28.384ZM259.558 27.136C260.454 27.136 261.339 26.8907 262.214 26.4C263.11 25.9093 263.984 25.216 264.838 24.32V15.776C263.984 14.944 263.152 14.3573 262.342 14.016C261.531 13.6747 260.72 13.504 259.91 13.504C258.822 13.504 257.84 13.8027 256.966 14.4C256.091 14.9973 255.387 15.8187 254.854 16.864C254.342 17.888 254.086 19.0507 254.086 20.352C254.086 22.3787 254.566 24.0213 255.526 25.28C256.507 26.5173 257.851 27.136 259.558 27.136ZM280.185 28.384C278.713 28.384 277.358 28.064 276.121 27.424C274.884 26.784 273.902 25.8667 273.177 24.672C272.452 23.456 272.089 22.0053 272.089 20.32C272.089 18.656 272.452 17.2267 273.177 16.032C273.902 14.816 274.852 13.888 276.025 13.248C277.198 12.5867 278.446 12.256 279.769 12.256C281.177 12.256 282.393 12.544 283.417 13.12C284.441 13.6747 285.23 14.4853 285.785 15.552C286.361 16.6187 286.649 17.888 286.649 19.36C286.649 19.552 286.649 19.7547 286.649 19.968C286.649 20.16 286.628 20.352 286.585 20.544H272.793V19.328H285.945L285.369 19.904C285.369 17.728 284.846 16.1173 283.801 15.072C282.777 14.0053 281.444 13.472 279.801 13.472C278.734 13.472 277.721 13.7387 276.761 14.272C275.822 14.8053 275.044 15.584 274.425 16.608C273.828 17.6107 273.529 18.8373 273.529 20.288C273.529 21.76 273.838 23.008 274.457 24.032C275.076 25.056 275.897 25.8347 276.921 26.368C277.945 26.9013 279.065 27.168 280.281 27.168C281.326 27.168 282.265 27.0187 283.097 26.72C283.929 26.4 284.708 25.9947 285.433 25.504L286.009 26.56C285.326 27.0293 284.516 27.456 283.577 27.84C282.66 28.2027 281.529 28.384 280.185 28.384Z" fill="#00CC00"/>
</g>
<path d="M295.166 24.448L293.822 23.488L297.278 18.208L292.094 15.968L292.606 14.496L297.95 16.256L298.238 10.208H299.774L300.062 16.256L305.406 14.496L305.918 15.968L300.734 18.208L304.19 23.488L302.846 24.448L299.006 19.36L295.166 24.448Z" fill="#F7F763"/>
<defs>
<filter id="filter0_f_22_87" x="17.6275" y="0.608002" width="273.021" height="31.776" filterUnits="userSpaceOnUse" color-interpolation-filters="sRGB">
<feFlood flood-opacity="0" result="BackgroundImageFix"/>
<feBlend mode="normal" in="SourceGraphic" in2="BackgroundImageFix" result="shape"/>
<feGaussianBlur stdDeviation="2" result="effect1_foregroundBlur_22_87"/>
</filter>
</defs>
</svg>
